Coordinates
version=1
nRows=17
nColumns=24
inDegrees=yes

Units are S.I. units (second, meters, Newtons, ...)
Angles are in degrees.

endheader
time	pelvis_tilt	pelvis_list	pelvis_rotation	pelvis_tx	pelvis_ty	pelvis_tz	hip_flexion_r	hip_adduction_r	hip_rotation_r	knee_angle_r	ankle_angle_r	subtalar_angle_r	mtp_angle_r	hip_flexion_l	hip_adduction_l	hip_rotation_l	knee_angle_l	ankle_angle_l	subtalar_angle_l	mtp_angle_l	lumbar_extension	lumbar_bending	lumbar_rotation
      3.37000000	    -10.39975785	     -3.07440428	     -5.24497470	     -1.32113276	     -0.01617573	     -0.24521388	      5.25394372	      5.69156233	      1.73163082	    -10.10826563	      6.10165626	     -8.88427361	     10.62404650	     37.47426728	     -8.31737361	    -10.40628804	    -46.06038255	     -3.89738126	     -8.11629470	     13.30611139	      5.34303408	      5.01980429	      2.56847361
      3.37500000	    -10.53557449	     -2.96219084	     -5.42980880	     -1.31427837	     -0.01705481	     -0.24501659	      4.86944861	      5.57109383	      1.90326012	     -9.92866958	      6.38505711	     -8.82499020	     10.68728360	     37.91581068	     -8.31457481	    -10.51371521	    -44.64747104	     -3.73606611	     -7.69340762	     13.11380546	      5.43644738	      4.89116238	      2.85809275
      3.38000000	    -10.58227329	     -2.81679354	     -5.57362706	     -1.30737251	     -0.01785164	     -0.24484605	      4.36795162	      5.40150882	      2.04531190	     -9.70551932	      6.63824674	     -8.82092362	     10.72840310	     38.21946225	     -8.25246338	    -10.63677746	    -43.16026552	     -3.62218822	     -7.34836719	     12.78201363	      5.44637419	      4.70373539	      3.10850420
      3.38500000	    -10.54768512	     -2.68516093	     -5.64519971	     -1.30045897	     -0.01858266	     -0.24482774	      3.76934171	      5.22473800	      2.04291374	     -9.45667730	      6.83333950	     -8.82690536	     10.77183754	     38.42442732	     -8.13900905	    -10.69033245	    -41.67792405	     -3.28559869	     -6.87660410	     11.30255703	      5.36219109	      4.52333244	      3.30748391
      3.39000000	    -10.71114877	     -2.56820476	     -5.82345220	     -1.29359781	     -0.01961246	     -0.24465897	      3.41798959	      5.09319300	      2.20849064	     -9.28035768	      7.10534705	     -8.77647323	     10.81708984	     38.81541165	     -8.13866904	    -10.80128004	    -40.14392117	     -3.23516653	     -6.56144017	     11.07060419	      5.48459671	      4.38543252	      3.60562348
      3.39500000	    -10.75162169	     -2.42419568	     -5.97337923	     -1.28673610	     -0.02049788	     -0.24455458	      2.93138493	      4.91238483	      2.29452853	     -9.08692565	      7.34610269	     -8.72776360	     10.84525744	     39.02427176	     -8.07699530	    -10.90791852	    -38.53854392	     -3.18112653	     -6.27709040	     10.65121090	      5.46816091	      4.20613619	      3.89014717
      3.40000000	    -10.91055321	     -2.36668636	     -6.03106341	     -1.27984441	     -0.02163364	     -0.24454630	      2.54960019	      4.83550710	      2.27312679	     -8.86503833	      7.52861445	     -8.76983950	     10.85378613	     39.39332247	     -8.04738232	    -10.84174654	    -36.96977390	     -3.18211183	     -5.98325229	     10.50104324	      5.58445679	      4.11045500	      4.08215826
      3.40500000	    -10.86134061	     -2.15813618	     -6.24444935	     -1.27297128	     -0.02242249	     -0.24438123	      1.98956639	      4.56622732	      2.34101413	     -8.70246707	      7.82197717	     -8.55978079	     10.89898805	     39.41645047	     -7.96499313	    -11.07545035	    -35.29185493	     -3.14049633	     -5.76269476	      9.79993000	      5.47459626	      3.85755418	      4.42983246
      3.41000000	    -10.83759982	     -2.03819299	     -6.25032072	     -1.26597898	     -0.02337475	     -0.24449609	      1.40763988	      4.37458591	      2.10194815	     -8.47620169	      8.12504857	     -8.27549686	     10.92839805	     39.53244046	     -7.82243147	    -11.02175288	    -33.76685441	     -2.64733973	     -5.17169318	      7.51976962	      5.40675409	      3.67002459	      4.53224012
      3.41500000	    -11.02586166	     -1.91208112	     -6.44090190	     -1.25911198	     -0.02453376	     -0.24435743	      1.10564323	      4.23083752	      2.17638033	     -8.32140022	      8.28951118	     -8.28624346	     10.94109600	     39.82479991	     -7.82033029	    -11.10907341	    -32.14643516	     -2.74681091	     -5.04996548	      7.17131257	      5.54512051	      3.52030370	      4.86286721
      3.42000000	    -10.99062569	     -1.76776981	     -6.49767091	     -1.25213527	     -0.02548465	     -0.24439020	      0.53230413	      4.01702790	      1.95344229	     -8.12279047	      8.56147573	     -8.00323242	     10.99486991	     39.86074899	     -7.69260659	    -11.07455421	    -30.56315355	     -2.59070320	     -4.69034381	      6.11514491	      5.45783482	      3.30465559	      5.03724442
      3.42500000	    -11.03310995	     -1.60322572	     -6.62456980	     -1.24518575	     -0.02650127	     -0.24434963	      0.07397249	      3.79884728	      1.78700467	     -7.96610940	      8.78966289	     -7.79237241	     11.04385650	     39.95873707	     -7.60056624	    -11.10179159	    -29.00504090	     -2.49823468	     -4.43487941	      4.99701952	      5.44954807	      3.08452443	      5.29893275
      3.43000000	    -11.22113231	     -1.55762420	     -6.72618897	     -1.23830172	     -0.02776331	     -0.24431087	     -0.23480505	      3.74592095	      1.64885397	     -7.80689456	      8.86796230	     -7.83732952	     11.03663859	     40.25489861	     -7.62983506	    -10.98883359	    -27.53448558	     -2.59344343	     -4.22286316	      4.84899190	      5.57283521	      2.99624694	      5.54474865
      3.43500000	    -11.29753387	     -1.33712369	     -6.84690196	     -1.23125550	     -0.02880243	     -0.24425638	     -0.63650173	      3.47400916	      1.48826350	     -7.68711220	      9.06038934	     -7.66641117	     11.06563762	     40.35013577	     -7.49546959	    -11.03276038	    -26.00923581	     -2.75829163	     -4.13765297	      4.45212147	      5.61528917	      2.71373728	      5.73369256
      3.44000000	    -11.30814278	     -1.20622293	     -6.89866373	     -1.22426771	     -0.02982633	     -0.24450194	     -1.08640659	      3.26553882	      0.91657943	     -7.61106168	      9.36334971	     -7.09492246	     11.21841585	     40.43813755	     -7.35942192	    -10.82201364	    -24.75575013	     -2.13495883	     -3.70820148	      0.97669408	      5.56226187	      2.52393827	      5.93484125
      3.44500000	    -11.36583730	     -1.04533482	     -7.00585474	     -1.21718462	     -0.03089517	     -0.24441478	     -1.51252787	      3.07214531	      0.73291432	     -7.49013574	      9.43081713	     -7.09444164	     11.21287017	     40.52392485	     -7.29495340	    -10.79040029	    -23.41400194	     -2.25009551	     -3.52878187	      0.80540923	      5.58062897	      2.28149751	      6.14000060
      3.45000000	    -11.28400706	     -0.87949937	     -7.11717135	     -1.21012594	     -0.03177518	     -0.24449688	     -2.05294013	      2.83017352	      0.31122752	     -7.42339375	      9.59260796	     -6.74066999	     11.26674911	     40.44199168	     -7.19215611	    -10.71985797	    -22.13260978	     -2.34987965	     -3.47880853	      0.36051606	      5.43518348	      2.03784746	      6.40703824
